<?xml version="1.0" encoding="UTF-8"?>
<svg width="80px" height="32px" viewBox="0 0 80 32" version="1.1" xmlns="http://www.w3.org/2000/svg" xmlns:xlink="http://www.w3.org/1999/xlink">
    <title>logo-dark</title>
    <g id="页面-1" stroke="none" stroke-width="1" fill="none" fill-rule="evenodd">
        <g id="桌面端-HD" transform="translate(-140.000000, -186.000000)">
            <g id="logo-dark" transform="translate(140.000000, 186.000000)">
                <rect id="矩形" fill="#D8D8D8" opacity="0" x="0" y="0" width="80" height="32"></rect>
                <path d="M6.99749373,26 L11.8909774,20.4599042 L16.4053885,25.8279473 L21.3333333,21.2513465 L15.85401,15.986535 L20.5062657,10.7217235 L16.2330827,6.83333333 L11.9943609,12.2701975 L6.5839599,7.10861759 L3,9.79263914 L8.65162907,16.5371035 L3.17230576,23.5568522 L6.99749373,26 Z M23.269131,25.1666667 L38.0875486,24.7562189 L38.8333333,7.17537313 L33.807393,6.83333333 L32.7049287,19.8650498 L28.9435798,19.7282338 L28.651751,6.93594527 L22.1666667,7.31218905 L23.269131,25.1666667 Z M52.0006094,25.1666667 L58,23.671866 L50.9951249,6.83044483 L46.6045094,6 L39.6666667,24.8344887 L45.6325411,25.0337955 L46.9396709,20.615829 L50.8610603,20.7487002 L52.0006094,25.1666667 Z M48,15.1666667 L48.9433962,12.6666667 L49.6666667,14.9438944 L48,15.1666667 Z M65.5308642,25.1666667 L65.2050754,15.5348837 L70.6457476,24.9292636 L74.3271605,24.7936047 L75.5,8.27713178 L70.4828532,8.07364341 L70.548011,16.1453488 L64.9444444,7.66666667 L60.3182442,8.00581395 L59.6666667,24.8275194 L65.5308642,25.1666667 Z" id="XUAN" fill="#222222" fill-rule="nonzero"></path>
            </g>
        </g>
    </g>
</svg>