<?xml version="1.0" encoding="UTF-8"?>
<svg width="200px" height="60px" viewBox="0 0 200 60" version="1.1" xmlns="http://www.w3.org/2000/svg" xmlns:xlink="http://www.w3.org/1999/xlink">
    <!-- Generator: Sketch 52 (66869) - http://www.bohemiancoding.com/sketch -->
    <title>logo</title>
    <desc>Created with Sketch.</desc>
    <g id="logo" stroke="none" stroke-width="1" fill="none" fill-rule="evenodd">
        <path d="M30.6,59 C23.5848,55.0946667 16.55,51.2247778 9.5664,47.2634583 C7.4408,46.0579444 6.2064,44.2422222 6.2364,41.5855 C6.3144,34.6049583 6.4456,27.6163611 6.192,20.6442778 C6.0464,16.6350278 7.7444,14.1555278 11.01,12.3414167 C16.5744,9.24969444 22.1348,6.15031944 27.656,2.98166667 C30.7028,1.23320833 33.7432,1.06605556 36.7896,2.78390278 C42.7944,6.17045833 48.7216,9.69838889 54.7568,13.0289583 C57.8048,14.7105556 58.8304,17.4369583 58.8948,20.5633194 C59.0308,27.1394722 59.0116,33.7212639 58.9036,40.2982222 C58.8512,43.5119861 57.6676,46.1719306 54.5244,47.7061111 C52.2496,48.8165694 50.118,50.2246806 47.5612,51.7097222 C48.1324,46.0237083 44.8472,43.5929444 40.8092,41.4707083 C35.7572,38.816 30.8624,35.8575972 25.9172,32.9990833 C24.354,32.09525 23.7256,29.9754306 24.3704,28.1206389 C24.9356,26.4942222 26.7556,25.6081111 29.0324,26.0680833 C30.7924,26.4241389 31.5684,27.7754583 31.7264,29.4941111 C31.786,30.1445972 31.736,30.8051528 31.736,31.4922917 L48.3528,31.4922917 C48.436,31.7782639 48.576,32.2595833 48.7768,32.9511528 C49.8972,32.3449722 51.6624,31.9724028 51.9016,31.1495278 C52.5816,28.8122083 52.6388,26.2912222 52.972,23.5950278 C49.2608,23.6481944 46.2452,22.7230139 43.6008,20.7131528 C43.0784,20.3160139 42.3876,20.005875 42.0844,19.4762222 C39.6104,15.1515972 34.918,13.92675 31.1308,11.4520833 C29.5128,10.3947917 27.7652,9.53888889 26.0764,8.59155556 L25.7608,8.99070833 C29.0952,11.9245417 32.43,14.858375 36.0288,18.0250139 C35.3084,18.1108056 34.876,18.2719167 34.496,18.1893472 C32.7132,17.8022778 30.8904,17.4997917 29.1888,16.8730694 C27.7168,16.3309306 27.2536,16.8480972 27.2152,17.8103333 C23.8544,18.650125 20.6836,19.4423889 16.9944,20.36475 C18.5988,21.7740694 17.8656,22.1418056 17.0832,23.0770556 C15.2552,25.2609167 13.914,27.8580278 12.376,30.2875833 C12.5908,30.322625 12.8056,30.3576667 13.0204,30.3923056 C13.3924,30.9630417 14.022,31.5019583 14.0952,32.1089444 C14.6044,36.3344861 16.7072,39.5651667 20.2352,41.7192222 C24.492,44.3183472 28.8832,46.6979583 33.2548,49.1013333 C35.1976,50.1695 36.48,51.6915972 36.4872,53.9117083 C36.4956,56.5184861 35.2628,57.7775694 32.372,58.67375 C32.2892,58.6995278 32.256,58.887625 32.2,59 L30.6,59 Z M36.30564,21.7965847 C38.52924,23.0153903 40.62124,24.1069181 42.62484,25.3434458 C42.83044,25.4703208 42.72604,26.6834875 42.39364,27.0153764 C41.18724,28.2204875 38.96604,28.2563347 37.43644,27.2775847 C35.84564,26.2593625 35.47044,24.7159181 36.30564,21.7965847 Z M90.5429322,32.4436704 C87.6230353,34.3571277 86.963254,36.7533195 87.1418065,39.6423308 C87.2997823,42.203244 87.1749947,44.7816378 87.1749947,47.6222412 L81,47.6222412 L81,13.405913 L87.0860503,13.405913 L87.0860503,26.1331607 C87.3177039,26.2118236 87.5500212,26.2904865 87.7816748,26.3691493 C89.8824873,23.6583061 92.2627443,21.1189075 94.0177358,18.194935 C96.6309739,13.8409119 100.046702,12.0014111 105.298402,13.5316391 C101.800366,17.9031428 98.2864008,22.2934718 94.7438934,26.7201067 C98.4058783,33.6081497 102.089104,40.5365326 106,47.8945357 C104.003398,47.8945357 102.417003,48.1816215 101.000531,47.8084772 C99.7353972,47.4750004 98.2007753,46.6876995 97.5775011,45.6233977 C95.0890506,41.3769478 92.9092502,36.9449342 90.5429322,32.4436704 Z M130.375742,31.4922361 C129.550292,27.3899162 127.913553,26.0711264 124.247581,26.1928609 C120.892502,26.3041235 119.574074,27.6549832 119.148536,31.4922361 L130.375742,31.4922361 Z M136.977998,36.663332 L127.6411,36.663332 L118.949591,36.663332 C119.683325,43.3646168 123.974454,44.3168943 135.299447,40.667479 C136.377793,47.6501928 135.454556,46.3170043 128.194772,47.6619736 C122.987825,48.6266863 117.57991,47.6711364 114.519538,42.905822 C111.134112,37.6345896 111.256176,31.8175158 114.310478,26.3041235 C116.427381,22.4838873 123.091681,20.160461 127.860276,21.2835595 C132.984274,22.4904321 136.723079,26.9357028 136.968556,32.1689749 C137.033298,33.5577947 136.977998,34.9518505 136.977998,36.663332 Z M148.764109,31.3843952 L160.410966,31.3843952 C160.035809,28.1086263 158.338088,26.4490436 155.260713,26.1873503 C151.442539,25.862535 150.031623,26.9803205 148.764109,31.3843952 Z M167,36.7221496 L148.981591,36.7221496 C149.054991,43.2572496 153.528331,44.2783795 165.404224,40.7054111 C165.992105,45.9760983 165.992105,45.9760983 159.724537,47.4653831 C152.534029,49.1736223 145.826059,46.705289 143.416763,41.2458932 C140.486868,34.6088776 141.911377,24.934773 149.475684,22.0390511 C158.44479,18.6061347 167.001359,24.0116137 167,33.3701083 C167,34.337979 167,35.3065072 167,36.7221496 Z M198,42.8412988 L198,47.904832 C194.879665,47.904832 191.88417,48.1551929 188.942728,47.8437683 C184.939511,47.4197152 182.322394,43.713152 182.287645,38.7873512 C182.234234,31.3613334 182.273488,23.9346371 182.273488,16.1137411 L176,16.1137411 L176,11 L188.506435,11 C188.506435,19.1214649 188.506435,27.096377 188.506435,35.0712891 C188.506435,42.2510169 188.839768,42.6024721 195.696268,42.71985 C196.420849,42.7320627 197.144788,42.7944833 198,42.8412988 Z" id="Combined-Shape" fill="#231916"></path>
    </g>
</svg>